{
	"asset":{
		"generator":"Khronos glTF Blender I/O v3.6.27",
		"version":"2.0"
	},
	"scene":0,
	"scenes":[
		{
			"name":"Scene",
			"nodes":[
				24
			]
		}
	],
	"nodes":[
		{
			"mesh":0,
			"name":"back curve"
		},
		{
			"mesh":1,
			"name":"back wall"
		},
		{
			"mesh":2,
			"name":"base funnel"
		},
		{
			"mesh":3,
			"name":"bumper.1"
		},
		{
			"mesh":4,
			"name":"bumper.2"
		},
		{
			"mesh":5,
			"name":"bumper.3"
		},
		{
			"mesh":6,
			"name":"floor",
			"translation":[
				0.07980872690677643,
				0.07272493094205856,
				0.544978678226471
			]
		},
		{
			"mesh":7,
			"name":"lefft passage",
			"translation":[
				-0.1923404335975647,
				0.06605349481105804,
				0.4439513385295868
			]
		},
		{
			"mesh":8,
			"name":"left shoot"
		},
		{
			"mesh":9,
			"name":"left wall"
		},
		{
			"mesh":10,
			"name":"near wall"
		},
		{
			"mesh":11,
			"name":"redirector"
		},
		{
			"mesh":12,
			"name":"right shoot"
		},
		{
			"mesh":13,
			"name":"right wall"
		},
		{
			"mesh":14,
			"name":"rightpassage",
			"translation":[
				0.1677541732788086,
				0.06605349481105804,
				0.45010775327682495
			]
		},
		{
			"mesh":15,
			"name":"shoot ramp"
		},
		{
			"children":[
				0,
				1,
				2,
				3,
				4,
				5,
				6,
				7,
				8,
				9,
				10,
				11,
				12,
				13,
				14,
				15
			],
			"name":"collision"
		},
		{
			"mesh":16,
			"name":"plunger"
		},
		{
			"children":[
				17
			],
			"name":"decoration"
		},
		{
			"mesh":17,
			"name":"paddle-left-1",
			"translation":[
				-0.09345681965351105,
				0.07272493094205856,
				0.5458515286445618
			]
		},
		{
			"mesh":18,
			"name":"paddle-left-2",
			"translation":[
				-0.2745782136917114,
				0.07272493094205856,
				0.046567291021347046
			]
		},
		{
			"mesh":19,
			"name":"paddle-right-1",
			"translation":[
				0.07980872690677643,
				0.07272493094205856,
				0.544978678226471
			]
		},
		{
			"children":[
				19,
				20,
				21
			],
			"name":"ents"
		},
		{
			"name":"launch",
			"translation":[
				0.26585161685943604,
				0.0672462210059166,
				0.6730766296386719
			]
		},
		{
			"children":[
				16,
				18,
				22,
				23
			],
			"name":"table"
		}
	],
	"materials":[
		{
			"doubleSided":true,
			"name":"Material.003",
			"pbrMetallicRoughness":{
				"baseColorFactor":[
					0.11983001232147217,
					0.4062502086162567,
					0.10209465026855469,
					1
				],
				"metallicFactor":0,
				"roughnessFactor":0.5
			}
		},
		{
			"doubleSided":true,
			"name":"Material.001",
			"pbrMetallicRoughness":{
				"baseColorFactor":[
					0.8000000715255737,
					0.5158716440200806,
					0.04368077963590622,
					1
				],
				"metallicFactor":0,
				"roughnessFactor":0.5
			}
		},
		{
			"doubleSided":true,
			"name":"Material",
			"pbrMetallicRoughness":{
				"baseColorFactor":[
					0.8000000715255737,
					0.051990706473588943,
					0.06715623289346695,
					1
				],
				"metallicFactor":0,
				"roughnessFactor":0.5
			}
		},
		{
			"doubleSided":true,
			"name":"Material.004",
			"pbrMetallicRoughness":{
				"baseColorFactor":[
					0.8000000715255737,
					0.001510104164481163,
					0.4363190829753876,
					1
				],
				"metallicFactor":0,
				"roughnessFactor":0.5
			}
		},
		{
			"doubleSided":true,
			"name":"Material.002",
			"pbrMetallicRoughness":{
				"baseColorFactor":[
					0.13161399960517883,
					0.047232311218976974,
					0.8000000715255737,
					1
				],
				"metallicFactor":0,
				"roughnessFactor":0.5
			}
		}
	],
	"meshes":[
		{
			"name":"Cube.013",
			"primitives":[
				{
					"attributes":{
						"POSITION":0,
						"NORMAL":1,
						"TEXCOORD_0":2
					},
					"indices":3,
					"material":0
				}
			]
		},
		{
			"name":"Cube.005",
			"primitives":[
				{
					"attributes":{
						"POSITION":4,
						"NORMAL":5,
						"TEXCOORD_0":6
					},
					"indices":7,
					"material":1
				}
			]
		},
		{
			"name":"Cube.007",
			"primitives":[
				{
					"attributes":{
						"POSITION":8,
						"NORMAL":9,
						"TEXCOORD_0":10
					},
					"indices":11,
					"material":0
				}
			]
		},
		{
			"name":"Cylinder",
			"primitives":[
				{
					"attributes":{
						"POSITION":12,
						"NORMAL":13,
						"TEXCOORD_0":14
					},
					"indices":15
				}
			]
		},
		{
			"name":"Cylinder.002",
			"primitives":[
				{
					"attributes":{
						"POSITION":16,
						"NORMAL":17,
						"TEXCOORD_0":18
					},
					"indices":15
				}
			]
		},
		{
			"name":"Cylinder.003",
			"primitives":[
				{
					"attributes":{
						"POSITION":19,
						"NORMAL":20,
						"TEXCOORD_0":21
					},
					"indices":15
				}
			]
		},
		{
			"name":"Cube.001",
			"primitives":[
				{
					"attributes":{
						"POSITION":22,
						"NORMAL":23,
						"TEXCOORD_0":24
					},
					"indices":7,
					"material":2
				}
			]
		},
		{
			"name":"Cube.008",
			"primitives":[
				{
					"attributes":{
						"POSITION":25,
						"NORMAL":26,
						"TEXCOORD_0":27
					},
					"indices":28
				}
			]
		},
		{
			"name":"Cube.006",
			"primitives":[
				{
					"attributes":{
						"POSITION":29,
						"NORMAL":30,
						"TEXCOORD_0":31
					},
					"indices":32
				}
			]
		},
		{
			"name":"Cube.002",
			"primitives":[
				{
					"attributes":{
						"POSITION":33,
						"NORMAL":34,
						"TEXCOORD_0":35
					},
					"indices":7,
					"material":1
				}
			]
		},
		{
			"name":"Cube.004",
			"primitives":[
				{
					"attributes":{
						"POSITION":36,
						"NORMAL":37,
						"TEXCOORD_0":38
					},
					"indices":7,
					"material":1
				}
			]
		},
		{
			"name":"Cube.011",
			"primitives":[
				{
					"attributes":{
						"POSITION":39,
						"NORMAL":40,
						"TEXCOORD_0":41
					},
					"indices":42,
					"material":0
				}
			]
		},
		{
			"name":"Cube.018",
			"primitives":[
				{
					"attributes":{
						"POSITION":43,
						"NORMAL":44,
						"TEXCOORD_0":45
					},
					"indices":46
				}
			]
		},
		{
			"name":"Cube.003",
			"primitives":[
				{
					"attributes":{
						"POSITION":47,
						"NORMAL":48,
						"TEXCOORD_0":49
					},
					"indices":7,
					"material":1
				}
			]
		},
		{
			"name":"Cube.014",
			"primitives":[
				{
					"attributes":{
						"POSITION":50,
						"NORMAL":51,
						"TEXCOORD_0":52
					},
					"indices":53
				}
			]
		},
		{
			"name":"Cube.010",
			"primitives":[
				{
					"attributes":{
						"POSITION":54,
						"NORMAL":55,
						"TEXCOORD_0":56
					},
					"indices":57,
					"material":3
				}
			]
		},
		{
			"name":"Cylinder.001",
			"primitives":[
				{
					"attributes":{
						"POSITION":58,
						"NORMAL":59,
						"TEXCOORD_0":60
					},
					"indices":61
				}
			]
		},
		{
			"name":"Cube.016",
			"primitives":[
				{
					"attributes":{
						"POSITION":62,
						"NORMAL":63,
						"TEXCOORD_0":64
					},
					"indices":65,
					"material":4
				}
			]
		},
		{
			"name":"Cube.020",
			"primitives":[
				{
					"attributes":{
						"POSITION":66,
						"NORMAL":67,
						"TEXCOORD_0":68
					},
					"indices":69,
					"material":4
				}
			]
		},
		{
			"name":"Cube.019",
			"primitives":[
				{
					"attributes":{
						"POSITION":70,
						"NORMAL":71,
						"TEXCOORD_0":72
					},
					"indices":73,
					"material":4
				}
			]
		}
	],
	"accessors":[
		{
			"bufferView":0,
			"componentType":5126,
			"count":109,
			"max":[
				0.2842063307762146,
				0.15013077855110168,
				-0.1794012188911438
			],
			"min":[
				-0.28241848945617676,
				0.049685537815093994,
				-0.47266268730163574
			],
			"type":"VEC3"
		},
		{
			"bufferView":1,
			"componentType":5126,
			"count":109,
			"type":"VEC3"
		},
		{
			"bufferView":2,
			"componentType":5126,
			"count":109,
			"type":"VEC2"
		},
		{
			"bufferView":3,
			"componentType":5123,
			"count":192,
			"type":"SCALAR"
		},
		{
			"bufferView":4,
			"componentType":5126,
			"count":24,
			"max":[
				0.3201901316642761,
				0.15000000596046448,
				-0.7001798152923584
			],
			"min":[
				-0.3201901316642761,
				-0.05000000447034836,
				-0.8001798391342163
			],
			"type":"VEC3"
		},
		{
			"bufferView":5,
			"componentType":5126,
			"count":24,
			"type":"VEC3"
		},
		{
			"bufferView":6,
			"componentType":5126,
			"count":24,
			"type":"VEC2"
		},
		{
			"bufferView":7,
			"componentType":5123,
			"count":36,
			"type":"SCALAR"
		},
		{
			"bufferView":8,
			"componentType":5126,
			"count":64,
			"max":[
				0.24912449717521667,
				0.08210697770118713,
				0.7029258608818054
			],
			"min":[
				-0.27996811270713806,
				0.04999999329447746,
				0.10114169865846634
			],
			"type":"VEC3"
		},
		{
			"bufferView":9,
			"componentType":5126,
			"count":64,
			"type":"VEC3"
		},
		{
			"bufferView":10,
			"componentType":5126,
			"count":64,
			"type":"VEC2"
		},
		{
			"bufferView":11,
			"componentType":5123,
			"count":132,
			"type":"SCALAR"
		},
		{
			"bufferView":12,
			"componentType":5126,
			"count":72,
			"max":[
				0.03185180574655533,
				0.07827510684728622,
				0.35422730445861816
			],
			"min":[
				-0.04814819246530533,
				0.05827511101961136,
				0.2742273211479187
			],
			"type":"VEC3"
		},
		{
			"bufferView":13,
			"componentType":5126,
			"count":72,
			"type":"VEC3"
		},
		{
			"bufferView":14,
			"componentType":5126,
			"count":72,
			"type":"VEC2"
		},
		{
			"bufferView":15,
			"componentType":5123,
			"count":132,
			"type":"SCALAR"
		},
		{
			"bufferView":16,
			"componentType":5126,
			"count":72,
			"max":[
				-0.055566512048244476,
				0.07827510684728622,
				0.23394495248794556
			],
			"min":[
				-0.13556650280952454,
				0.05827511101961136,
				0.1539449393749237
			],
			"type":"VEC3"
		},
		{
			"bufferView":17,
			"componentType":5126,
			"count":72,
			"type":"VEC3"
		},
		{
			"bufferView":18,
			"componentType":5126,
			"count":72,
			"type":"VEC2"
		},
		{
			"bufferView":19,
			"componentType":5126,
			"count":72,
			"max":[
				0.1297866255044937,
				0.07827510684728622,
				0.23197311162948608
			],
			"min":[
				0.04978662729263306,
				0.05827511101961136,
				0.15197309851646423
			],
			"type":"VEC3"
		},
		{
			"bufferView":20,
			"componentType":5126,
			"count":72,
			"type":"VEC3"
		},
		{
			"bufferView":21,
			"componentType":5126,
			"count":72,
			"type":"VEC2"
		},
		{
			"bufferView":22,
			"componentType":5126,
			"count":24,
			"max":[
				0.20019127428531647,
				-0.022724930197000504,
				0.1550213098526001
			],
			"min":[
				-0.3598087430000305,
				-0.12272492796182632,
				-1.244978666305542
			],
			"type":"VEC3"
		},
		{
			"bufferView":23,
			"componentType":5126,
			"count":24,
			"type":"VEC3"
		},
		{
			"bufferView":24,
			"componentType":5126,
			"count":24,
			"type":"VEC2"
		},
		{
			"bufferView":25,
			"componentType":5126,
			"count":31,
			"max":[
				0.0965062752366066,
				0.01605348289012909,
				0.10695710778236389
			],
			"min":[
				-0.05871403217315674,
				-0.016053497791290283,
				-0.10469114780426025
			],
			"type":"VEC3"
		},
		{
			"bufferView":26,
			"componentType":5126,
			"count":31,
			"type":"VEC3"
		},
		{
			"bufferView":27,
			"componentType":5126,
			"count":31,
			"type":"VEC2"
		},
		{
			"bufferView":28,
			"componentType":5123,
			"count":48,
			"type":"SCALAR"
		},
		{
			"bufferView":29,
			"componentType":5126,
			"count":31,
			"max":[
				-0.10330219566822052,
				0.08190176635980606,
				0.47245609760284424
			],
			"min":[
				-0.15819913148880005,
				0.04979478567838669,
				0.35171568393707275
			],
			"type":"VEC3"
		},
		{
			"bufferView":30,
			"componentType":5126,
			"count":31,
			"type":"VEC3"
		},
		{
			"bufferView":31,
			"componentType":5126,
			"count":31,
			"type":"VEC2"
		},
		{
			"bufferView":32,
			"componentType":5123,
			"count":48,
			"type":"SCALAR"
		},
		{
			"bufferView":33,
			"componentType":5126,
			"count":24,
			"max":[
				-0.27965277433395386,
				0.15000000596046448,
				0.699999988079071
			],
			"min":[
				-0.3198429346084595,
				-0.05000000447034836,
				-0.699999988079071
			],
			"type":"VEC3"
		},
		{
			"bufferView":34,
			"componentType":5126,
			"count":24,
			"type":"VEC3"
		},
		{
			"bufferView":35,
			"componentType":5126,
			"count":24,
			"type":"VEC2"
		},
		{
			"bufferView":36,
			"componentType":5126,
			"count":24,
			"max":[
				0.3201901316642761,
				0.15000000596046448,
				0.8474042415618896
			],
			"min":[
				-0.3201901316642761,
				-0.05000000447034836,
				0.7004762887954712
			],
			"type":"VEC3"
		},
		{
			"bufferView":37,
			"componentType":5126,
			"count":24,
			"type":"VEC3"
		},
		{
			"bufferView":38,
			"componentType":5126,
			"count":24,
			"type":"VEC2"
		},
		{
			"bufferView":39,
			"componentType":5126,
			"count":52,
			"max":[
				-0.25136399269104004,
				0.06933895498514175,
				0.18915370106697083
			],
			"min":[
				-0.2923904061317444,
				0.04968667030334473,
				-0.042820073664188385
			],
			"type":"VEC3"
		},
		{
			"bufferView":40,
			"componentType":5126,
			"count":52,
			"type":"VEC3"
		},
		{
			"bufferView":41,
			"componentType":5126,
			"count":52,
			"type":"VEC2"
		},
		{
			"bufferView":42,
			"componentType":5123,
			"count":84,
			"type":"SCALAR"
		},
		{
			"bufferView":43,
			"componentType":5126,
			"count":31,
			"max":[
				0.14273235201835632,
				0.08190177381038666,
				0.47275131940841675
			],
			"min":[
				0.08789029717445374,
				0.04979478567838669,
				0.3519349694252014
			],
			"type":"VEC3"
		},
		{
			"bufferView":44,
			"componentType":5126,
			"count":31,
			"type":"VEC3"
		},
		{
			"bufferView":45,
			"componentType":5126,
			"count":31,
			"type":"VEC2"
		},
		{
			"bufferView":46,
			"componentType":5123,
			"count":48,
			"type":"SCALAR"
		},
		{
			"bufferView":47,
			"componentType":5126,
			"count":24,
			"max":[
				0.32045429944992065,
				0.15000000596046448,
				0.699999988079071
			],
			"min":[
				0.28026413917541504,
				-0.05000000447034836,
				-0.699999988079071
			],
			"type":"VEC3"
		},
		{
			"bufferView":48,
			"componentType":5126,
			"count":24,
			"type":"VEC3"
		},
		{
			"bufferView":49,
			"componentType":5126,
			"count":24,
			"type":"VEC2"
		},
		{
			"bufferView":50,
			"componentType":5126,
			"count":31,
			"max":[
				0.04224252700805664,
				0.016053490340709686,
				0.09879535436630249
			],
			"min":[
				-0.08581741154193878,
				-0.01605350524187088,
				-0.09178313612937927
			],
			"type":"VEC3"
		},
		{
			"bufferView":51,
			"componentType":5126,
			"count":31,
			"type":"VEC3"
		},
		{
			"bufferView":52,
			"componentType":5126,
			"count":31,
			"type":"VEC2"
		},
		{
			"bufferView":53,
			"componentType":5123,
			"count":48,
			"type":"SCALAR"
		},
		{
			"bufferView":54,
			"componentType":5126,
			"count":31,
			"max":[
				0.2858649790287018,
				0.07519999146461487,
				0.5214698910713196
			],
			"min":[
				0.249002143740654,
				0.0494907945394516,
				-0.02262890338897705
			],
			"type":"VEC3"
		},
		{
			"bufferView":55,
			"componentType":5126,
			"count":31,
			"type":"VEC3"
		},
		{
			"bufferView":56,
			"componentType":5126,
			"count":31,
			"type":"VEC2"
		},
		{
			"bufferView":57,
			"componentType":5123,
			"count":45,
			"type":"SCALAR"
		},
		{
			"bufferView":58,
			"componentType":5126,
			"count":130,
			"max":[
				0.27703502774238586,
				0.08677215874195099,
				0.8929816484451294
			],
			"min":[
				0.236673504114151,
				0.046410635113716125,
				0.6832766532897949
			],
			"type":"VEC3"
		},
		{
			"bufferView":59,
			"componentType":5126,
			"count":130,
			"type":"VEC3"
		},
		{
			"bufferView":60,
			"componentType":5126,
			"count":130,
			"type":"VEC2"
		},
		{
			"bufferView":61,
			"componentType":5123,
			"count":228,
			"type":"SCALAR"
		},
		{
			"bufferView":62,
			"componentType":5126,
			"count":41,
			"max":[
				0.060356900095939636,
				5.885958671569824e-06,
				0.03828692436218262
			],
			"min":[
				-0.011572308838367462,
				-0.01994338631629944,
				-0.01198035478591919
			],
			"type":"VEC3"
		},
		{
			"bufferView":63,
			"componentType":5126,
			"count":41,
			"type":"VEC3"
		},
		{
			"bufferView":64,
			"componentType":5126,
			"count":41,
			"type":"VEC2"
		},
		{
			"bufferView":65,
			"componentType":5123,
			"count":66,
			"type":"SCALAR"
		},
		{
			"bufferView":66,
			"componentType":5126,
			"count":41,
			"max":[
				0.02337878942489624,
				5.885958671569824e-06,
				0.06465482711791992
			],
			"min":[
				-0.011703044176101685,
				-0.01994338631629944,
				-0.012304514646530151
			],
			"type":"VEC3"
		},
		{
			"bufferView":67,
			"componentType":5126,
			"count":41,
			"type":"VEC3"
		},
		{
			"bufferView":68,
			"componentType":5126,
			"count":41,
			"type":"VEC2"
		},
		{
			"bufferView":69,
			"componentType":5123,
			"count":66,
			"type":"SCALAR"
		},
		{
			"bufferView":70,
			"componentType":5126,
			"count":41,
			"max":[
				0.011527568101882935,
				5.885958671569824e-06,
				0.03863579034805298
			],
			"min":[
				-0.059465259313583374,
				-0.01994338631629944,
				-0.01168680191040039
			],
			"type":"VEC3"
		},
		{
			"bufferView":71,
			"componentType":5126,
			"count":41,
			"type":"VEC3"
		},
		{
			"bufferView":72,
			"componentType":5126,
			"count":41,
			"type":"VEC2"
		},
		{
			"bufferView":73,
			"componentType":5123,
			"count":66,
			"type":"SCALAR"
		}
	],
	"bufferViews":[
		{
			"buffer":0,
			"byteLength":1308,
			"byteOffset":0,
			"target":34962
		},
		{
			"buffer":0,
			"byteLength":1308,
			"byteOffset":1308,
			"target":34962
		},
		{
			"buffer":0,
			"byteLength":872,
			"byteOffset":2616,
			"target":34962
		},
		{
			"buffer":0,
			"byteLength":384,
			"byteOffset":3488,
			"target":34963
		},
		{
			"buffer":0,
			"byteLength":288,
			"byteOffset":3872,
			"target":34962
		},
		{
			"buffer":0,
			"byteLength":288,
			"byteOffset":4160,
			"target":34962
		},
		{
			"buffer":0,
			"byteLength":192,
			"byteOffset":4448,
			"target":34962
		},
		{
			"buffer":0,
			"byteLength":72,
			"byteOffset":4640,
			"target":34963
		},
		{
			"buffer":0,
			"byteLength":768,
			"byteOffset":4712,
			"target":34962
		},
		{
			"buffer":0,
			"byteLength":768,
			"byteOffset":5480,
			"target":34962
		},
		{
			"buffer":0,
			"byteLength":512,
			"byteOffset":6248,
			"target":34962
		},
		{
			"buffer":0,
			"byteLength":264,
			"byteOffset":6760,
			"target":34963
		},
		{
			"buffer":0,
			"byteLength":864,
			"byteOffset":7024,
			"target":34962
		},
		{
			"buffer":0,
			"byteLength":864,
			"byteOffset":7888,
			"target":34962
		},
		{
			"buffer":0,
			"byteLength":576,
			"byteOffset":8752,
			"target":34962
		},
		{
			"buffer":0,
			"byteLength":264,
			"byteOffset":9328,
			"target":34963
		},
		{
			"buffer":0,
			"byteLength":864,
			"byteOffset":9592,
			"target":34962
		},
		{
			"buffer":0,
			"byteLength":864,
			"byteOffset":10456,
			"target":34962
		},
		{
			"buffer":0,
			"byteLength":576,
			"byteOffset":11320,
			"target":34962
		},
		{
			"buffer":0,
			"byteLength":864,
			"byteOffset":11896,
			"target":34962
		},
		{
			"buffer":0,
			"byteLength":864,
			"byteOffset":12760,
			"target":34962
		},
		{
			"buffer":0,
			"byteLength":576,
			"byteOffset":13624,
			"target":34962
		},
		{
			"buffer":0,
			"byteLength":288,
			"byteOffset":14200,
			"target":34962
		},
		{
			"buffer":0,
			"byteLength":288,
			"byteOffset":14488,
			"target":34962
		},
		{
			"buffer":0,
			"byteLength":192,
			"byteOffset":14776,
			"target":34962
		},
		{
			"buffer":0,
			"byteLength":372,
			"byteOffset":14968,
			"target":34962
		},
		{
			"buffer":0,
			"byteLength":372,
			"byteOffset":15340,
			"target":34962
		},
		{
			"buffer":0,
			"byteLength":248,
			"byteOffset":15712,
			"target":34962
		},
		{
			"buffer":0,
			"byteLength":96,
			"byteOffset":15960,
			"target":34963
		},
		{
			"buffer":0,
			"byteLength":372,
			"byteOffset":16056,
			"target":34962
		},
		{
			"buffer":0,
			"byteLength":372,
			"byteOffset":16428,
			"target":34962
		},
		{
			"buffer":0,
			"byteLength":248,
			"byteOffset":16800,
			"target":34962
		},
		{
			"buffer":0,
			"byteLength":96,
			"byteOffset":17048,
			"target":34963
		},
		{
			"buffer":0,
			"byteLength":288,
			"byteOffset":17144,
			"target":34962
		},
		{
			"buffer":0,
			"byteLength":288,
			"byteOffset":17432,
			"target":34962
		},
		{
			"buffer":0,
			"byteLength":192,
			"byteOffset":17720,
			"target":34962
		},
		{
			"buffer":0,
			"byteLength":288,
			"byteOffset":17912,
			"target":34962
		},
		{
			"buffer":0,
			"byteLength":288,
			"byteOffset":18200,
			"target":34962
		},
		{
			"buffer":0,
			"byteLength":192,
			"byteOffset":18488,
			"target":34962
		},
		{
			"buffer":0,
			"byteLength":624,
			"byteOffset":18680,
			"target":34962
		},
		{
			"buffer":0,
			"byteLength":624,
			"byteOffset":19304,
			"target":34962
		},
		{
			"buffer":0,
			"byteLength":416,
			"byteOffset":19928,
			"target":34962
		},
		{
			"buffer":0,
			"byteLength":168,
			"byteOffset":20344,
			"target":34963
		},
		{
			"buffer":0,
			"byteLength":372,
			"byteOffset":20512,
			"target":34962
		},
		{
			"buffer":0,
			"byteLength":372,
			"byteOffset":20884,
			"target":34962
		},
		{
			"buffer":0,
			"byteLength":248,
			"byteOffset":21256,
			"target":34962
		},
		{
			"buffer":0,
			"byteLength":96,
			"byteOffset":21504,
			"target":34963
		},
		{
			"buffer":0,
			"byteLength":288,
			"byteOffset":21600,
			"target":34962
		},
		{
			"buffer":0,
			"byteLength":288,
			"byteOffset":21888,
			"target":34962
		},
		{
			"buffer":0,
			"byteLength":192,
			"byteOffset":22176,
			"target":34962
		},
		{
			"buffer":0,
			"byteLength":372,
			"byteOffset":22368,
			"target":34962
		},
		{
			"buffer":0,
			"byteLength":372,
			"byteOffset":22740,
			"target":34962
		},
		{
			"buffer":0,
			"byteLength":248,
			"byteOffset":23112,
			"target":34962
		},
		{
			"buffer":0,
			"byteLength":96,
			"byteOffset":23360,
			"target":34963
		},
		{
			"buffer":0,
			"byteLength":372,
			"byteOffset":23456,
			"target":34962
		},
		{
			"buffer":0,
			"byteLength":372,
			"byteOffset":23828,
			"target":34962
		},
		{
			"buffer":0,
			"byteLength":248,
			"byteOffset":24200,
			"target":34962
		},
		{
			"buffer":0,
			"byteLength":90,
			"byteOffset":24448,
			"target":34963
		},
		{
			"buffer":0,
			"byteLength":1560,
			"byteOffset":24540,
			"target":34962
		},
		{
			"buffer":0,
			"byteLength":1560,
			"byteOffset":26100,
			"target":34962
		},
		{
			"buffer":0,
			"byteLength":1040,
			"byteOffset":27660,
			"target":34962
		},
		{
			"buffer":0,
			"byteLength":456,
			"byteOffset":28700,
			"target":34963
		},
		{
			"buffer":0,
			"byteLength":492,
			"byteOffset":29156,
			"target":34962
		},
		{
			"buffer":0,
			"byteLength":492,
			"byteOffset":29648,
			"target":34962
		},
		{
			"buffer":0,
			"byteLength":328,
			"byteOffset":30140,
			"target":34962
		},
		{
			"buffer":0,
			"byteLength":132,
			"byteOffset":30468,
			"target":34963
		},
		{
			"buffer":0,
			"byteLength":492,
			"byteOffset":30600,
			"target":34962
		},
		{
			"buffer":0,
			"byteLength":492,
			"byteOffset":31092,
			"target":34962
		},
		{
			"buffer":0,
			"byteLength":328,
			"byteOffset":31584,
			"target":34962
		},
		{
			"buffer":0,
			"byteLength":132,
			"byteOffset":31912,
			"target":34963
		},
		{
			"buffer":0,
			"byteLength":492,
			"byteOffset":32044,
			"target":34962
		},
		{
			"buffer":0,
			"byteLength":492,
			"byteOffset":32536,
			"target":34962
		},
		{
			"buffer":0,
			"byteLength":328,
			"byteOffset":33028,
			"target":34962
		},
		{
			"buffer":0,
			"byteLength":132,
			"byteOffset":33356,
			"target":34963
		}
	],
	"buffers":[
		{
			"byteLength":33488,
			"uri":"table2.bin"
		}
	]
}
