{
	"asset":{
		"generator":"Khronos glTF Blender I/O v3.6.27",
		"version":"2.0"
	},
	"scene":0,
	"scenes":[
		{
			"name":"Scene",
			"nodes":[
				5,
				8,
				16,
				17,
				18
			]
		}
	],
	"nodes":[
		{
			"mesh":0,
			"name":"back wall",
			"translation":[
				0.11161096394062042,
				-0.06826671957969666,
				-0.5186972618103027
			]
		},
		{
			"mesh":1,
			"name":"floor",
			"translation":[
				0.11161096394062042,
				-0.06826671957969666,
				-0.5186972618103027
			]
		},
		{
			"mesh":2,
			"name":"left wall",
			"translation":[
				0.11161096394062042,
				-0.06826671957969666,
				-0.5186972618103027
			]
		},
		{
			"mesh":3,
			"name":"near wall",
			"translation":[
				0.11161096394062042,
				-0.06826671957969666,
				-0.5186972618103027
			]
		},
		{
			"mesh":4,
			"name":"right wall",
			"translation":[
				0.11161096394062042,
				-0.06826671957969666,
				-0.5186972618103027
			]
		},
		{
			"children":[
				0,
				1,
				2,
				3,
				4
			],
			"name":"outer",
			"translation":[
				-0.11161096394062042,
				0.06826671957969666,
				0.5186972618103027
			]
		},
		{
			"mesh":5,
			"name":"paddle-left",
			"rotation":[
				0,
				-0.06602009385824203,
				0,
				0.9978182911872864
			],
			"scale":[
				1.0614070892333984,
				1.0614070892333984,
				1.0614070892333984
			],
			"translation":[
				-0.0047491490840911865,
				0,
				0.0029030442237854004
			]
		},
		{
			"mesh":6,
			"name":"paddle-right",
			"rotation":[
				0,
				0.06712417304515839,
				0,
				0.9977447390556335
			],
			"scale":[
				1.0220668315887451,
				1.0220667123794556,
				1.0220668315887451
			],
			"translation":[
				0.1689242124557495,
				0.0024437978863716125,
				0.005485057830810547
			]
		},
		{
			"children":[
				6,
				7
			],
			"name":"interactive",
			"translation":[
				-0.11161096394062042,
				0.06826671957969666,
				0.5186972618103027
			]
		},
		{
			"mesh":7,
			"name":"back durve",
			"translation":[
				0.11161096394062042,
				-0.06826671957969666,
				-0.5818782448768616
			]
		},
		{
			"mesh":8,
			"name":"base funnel",
			"translation":[
				0.11161096394062042,
				-0.06826671957969666,
				-0.5186972618103027
			]
		},
		{
			"mesh":9,
			"name":"lefft passage",
			"translation":[
				0.10262474417686462,
				-0.06826671957969666,
				-0.5225611329078674
			]
		},
		{
			"mesh":10,
			"name":"left shoot",
			"rotation":[
				0,
				0.016148943454027176,
				0,
				0.999869704246521
			],
			"translation":[
				-0.0583932101726532,
				0.0015857145190238953,
				-0.11965411901473999
			]
		},
		{
			"mesh":11,
			"name":"redirector",
			"rotation":[
				0,
				0.7151564955711365,
				0,
				0.6989643573760986
			],
			"scale":[
				0.9998509883880615,
				1,
				0.6569581031799316
			],
			"translation":[
				-0.13857753574848175,
				0.009548269212245941,
				-0.7467935085296631
			]
		},
		{
			"mesh":12,
			"name":"right passage",
			"translation":[
				0.11989065259695053,
				-0.06826671957969666,
				-0.5101416110992432
			]
		},
		{
			"mesh":13,
			"name":"right shoot",
			"translation":[
				0.22734776139259338,
				0.0004859715700149536,
				-0.12198314070701599
			]
		},
		{
			"children":[
				9,
				10,
				11,
				12,
				13,
				14,
				15
			],
			"name":"furniture",
			"translation":[
				-0.11161096394062042,
				0.06826671957969666,
				0.5186972618103027
			]
		},
		{
			"name":"launch",
			"translation":[
				0.25738173723220825,
				0.06756211072206497,
				0.6633691191673279
			]
		},
		{
			"mesh":14,
			"name":"plunger",
			"rotation":[
				0.7071068286895752,
				0,
				0,
				0.7071068286895752
			],
			"translation":[
				0.25685426592826843,
				0.06659138947725296,
				0.7832766771316528
			]
		}
	],
	"materials":[
		{
			"doubleSided":true,
			"name":"Material.001",
			"pbrMetallicRoughness":{
				"baseColorFactor":[
					0.8000000715255737,
					0.5158716440200806,
					0.04368077963590622,
					1
				],
				"metallicFactor":0,
				"roughnessFactor":0.5
			}
		},
		{
			"doubleSided":true,
			"name":"Material",
			"pbrMetallicRoughness":{
				"baseColorFactor":[
					0.8000000715255737,
					0.051990706473588943,
					0.06715623289346695,
					1
				],
				"metallicFactor":0,
				"roughnessFactor":0.5
			}
		},
		{
			"doubleSided":true,
			"name":"Material.002",
			"pbrMetallicRoughness":{
				"baseColorFactor":[
					0.13161399960517883,
					0.047232311218976974,
					0.8000000715255737,
					1
				],
				"metallicFactor":0,
				"roughnessFactor":0.5
			}
		}
	],
	"meshes":[
		{
			"name":"Cube.005",
			"primitives":[
				{
					"attributes":{
						"POSITION":0,
						"NORMAL":1,
						"TEXCOORD_0":2
					},
					"indices":3,
					"material":0
				}
			]
		},
		{
			"name":"Cube.001",
			"primitives":[
				{
					"attributes":{
						"POSITION":4,
						"NORMAL":5,
						"TEXCOORD_0":6
					},
					"indices":3,
					"material":1
				}
			]
		},
		{
			"name":"Cube.002",
			"primitives":[
				{
					"attributes":{
						"POSITION":7,
						"NORMAL":8,
						"TEXCOORD_0":9
					},
					"indices":3,
					"material":0
				}
			]
		},
		{
			"name":"Cube.004",
			"primitives":[
				{
					"attributes":{
						"POSITION":10,
						"NORMAL":11,
						"TEXCOORD_0":12
					},
					"indices":3,
					"material":0
				}
			]
		},
		{
			"name":"Cube.003",
			"primitives":[
				{
					"attributes":{
						"POSITION":13,
						"NORMAL":14,
						"TEXCOORD_0":15
					},
					"indices":3,
					"material":0
				}
			]
		},
		{
			"name":"Cube.016",
			"primitives":[
				{
					"attributes":{
						"POSITION":16,
						"NORMAL":17,
						"TEXCOORD_0":18
					},
					"indices":19,
					"material":2
				}
			]
		},
		{
			"name":"Cube.014",
			"primitives":[
				{
					"attributes":{
						"POSITION":20,
						"NORMAL":21,
						"TEXCOORD_0":22
					},
					"indices":23,
					"material":2
				}
			]
		},
		{
			"name":"Cube.013",
			"primitives":[
				{
					"attributes":{
						"POSITION":24,
						"NORMAL":25,
						"TEXCOORD_0":26
					},
					"indices":27
				}
			]
		},
		{
			"name":"Cube.007",
			"primitives":[
				{
					"attributes":{
						"POSITION":28,
						"NORMAL":29,
						"TEXCOORD_0":30
					},
					"indices":31
				}
			]
		},
		{
			"name":"Cube.008",
			"primitives":[
				{
					"attributes":{
						"POSITION":32,
						"NORMAL":33,
						"TEXCOORD_0":34
					},
					"indices":35
				}
			]
		},
		{
			"name":"Cube.006",
			"primitives":[
				{
					"attributes":{
						"POSITION":36,
						"NORMAL":37,
						"TEXCOORD_0":38
					},
					"indices":39
				}
			]
		},
		{
			"name":"Cube.011",
			"primitives":[
				{
					"attributes":{
						"POSITION":40,
						"NORMAL":41,
						"TEXCOORD_0":42
					},
					"indices":43
				}
			]
		},
		{
			"name":"Cube.009",
			"primitives":[
				{
					"attributes":{
						"POSITION":44,
						"NORMAL":45,
						"TEXCOORD_0":46
					},
					"indices":47
				}
			]
		},
		{
			"name":"Cube.012",
			"primitives":[
				{
					"attributes":{
						"POSITION":48,
						"NORMAL":49,
						"TEXCOORD_0":50
					},
					"indices":51
				}
			]
		},
		{
			"name":"Cylinder.001",
			"primitives":[
				{
					"attributes":{
						"POSITION":52,
						"NORMAL":53,
						"TEXCOORD_0":54
					},
					"indices":55
				}
			]
		}
	],
	"accessors":[
		{
			"bufferView":0,
			"componentType":5126,
			"count":24,
			"max":[
				0.3201901316642761,
				0.15000000596046448,
				-0.7001798152923584
			],
			"min":[
				-0.3201901316642761,
				-0.05000000447034836,
				-0.8001798391342163
			],
			"type":"VEC3"
		},
		{
			"bufferView":1,
			"componentType":5126,
			"count":24,
			"type":"VEC3"
		},
		{
			"bufferView":2,
			"componentType":5126,
			"count":24,
			"type":"VEC2"
		},
		{
			"bufferView":3,
			"componentType":5123,
			"count":36,
			"type":"SCALAR"
		},
		{
			"bufferView":4,
			"componentType":5126,
			"count":24,
			"max":[
				0.2800000011920929,
				0.05000000074505806,
				0.699999988079071
			],
			"min":[
				-0.2800000011920929,
				-0.04999999701976776,
				-0.699999988079071
			],
			"type":"VEC3"
		},
		{
			"bufferView":5,
			"componentType":5126,
			"count":24,
			"type":"VEC3"
		},
		{
			"bufferView":6,
			"componentType":5126,
			"count":24,
			"type":"VEC2"
		},
		{
			"bufferView":7,
			"componentType":5126,
			"count":24,
			"max":[
				-0.27965277433395386,
				0.15000000596046448,
				0.699999988079071
			],
			"min":[
				-0.3198429346084595,
				-0.05000000447034836,
				-0.699999988079071
			],
			"type":"VEC3"
		},
		{
			"bufferView":8,
			"componentType":5126,
			"count":24,
			"type":"VEC3"
		},
		{
			"bufferView":9,
			"componentType":5126,
			"count":24,
			"type":"VEC2"
		},
		{
			"bufferView":10,
			"componentType":5126,
			"count":24,
			"max":[
				0.3201901316642761,
				0.15000000596046448,
				0.8474042415618896
			],
			"min":[
				-0.3201901316642761,
				-0.05000000447034836,
				0.7004762887954712
			],
			"type":"VEC3"
		},
		{
			"bufferView":11,
			"componentType":5126,
			"count":24,
			"type":"VEC3"
		},
		{
			"bufferView":12,
			"componentType":5126,
			"count":24,
			"type":"VEC2"
		},
		{
			"bufferView":13,
			"componentType":5126,
			"count":24,
			"max":[
				0.32045429944992065,
				0.15000000596046448,
				0.699999988079071
			],
			"min":[
				0.28026413917541504,
				-0.05000000447034836,
				-0.699999988079071
			],
			"type":"VEC3"
		},
		{
			"bufferView":14,
			"componentType":5126,
			"count":24,
			"type":"VEC3"
		},
		{
			"bufferView":15,
			"componentType":5126,
			"count":24,
			"type":"VEC2"
		},
		{
			"bufferView":16,
			"componentType":5126,
			"count":31,
			"max":[
				0.06464358419179916,
				-4.26173210144043e-06,
				0.02314293384552002
			],
			"min":[
				-0.014682188630104065,
				-0.020004257559776306,
				-0.011837184429168701
			],
			"type":"VEC3"
		},
		{
			"bufferView":17,
			"componentType":5126,
			"count":31,
			"type":"VEC3"
		},
		{
			"bufferView":18,
			"componentType":5126,
			"count":31,
			"type":"VEC2"
		},
		{
			"bufferView":19,
			"componentType":5123,
			"count":48,
			"type":"SCALAR"
		},
		{
			"bufferView":20,
			"componentType":5126,
			"count":31,
			"max":[
				0.014683037996292114,
				1.741945743560791e-05,
				0.02718740701675415
			],
			"min":[
				-0.06310298293828964,
				-0.019982576370239258,
				-0.01072847843170166
			],
			"type":"VEC3"
		},
		{
			"bufferView":21,
			"componentType":5126,
			"count":31,
			"type":"VEC3"
		},
		{
			"bufferView":22,
			"componentType":5126,
			"count":31,
			"type":"VEC2"
		},
		{
			"bufferView":23,
			"componentType":5123,
			"count":48,
			"type":"SCALAR"
		},
		{
			"bufferView":24,
			"componentType":5126,
			"count":109,
			"max":[
				0.2842063307762146,
				0.09671700745820999,
				-0.34869807958602905
			],
			"min":[
				-0.28241848945617676,
				0.049685537815093994,
				-0.641959547996521
			],
			"type":"VEC3"
		},
		{
			"bufferView":25,
			"componentType":5126,
			"count":109,
			"type":"VEC3"
		},
		{
			"bufferView":26,
			"componentType":5126,
			"count":109,
			"type":"VEC2"
		},
		{
			"bufferView":27,
			"componentType":5123,
			"count":192,
			"type":"SCALAR"
		},
		{
			"bufferView":28,
			"componentType":5126,
			"count":66,
			"max":[
				0.23483045399188995,
				0.08210697770118713,
				0.7000167965888977
			],
			"min":[
				-0.2784365117549896,
				0.04999999329447746,
				0.009948641061782837
			],
			"type":"VEC3"
		},
		{
			"bufferView":29,
			"componentType":5126,
			"count":66,
			"type":"VEC3"
		},
		{
			"bufferView":30,
			"componentType":5126,
			"count":66,
			"type":"VEC2"
		},
		{
			"bufferView":31,
			"componentType":5123,
			"count":132,
			"type":"SCALAR"
		},
		{
			"bufferView":32,
			"componentType":5126,
			"count":31,
			"max":[
				-0.11235004663467407,
				0.08210697770118713,
				0.5271743535995483
			],
			"min":[
				-0.2304709553718567,
				0.04999999701976776,
				0.26832276582717896
			],
			"type":"VEC3"
		},
		{
			"bufferView":33,
			"componentType":5126,
			"count":31,
			"type":"VEC3"
		},
		{
			"bufferView":34,
			"componentType":5126,
			"count":31,
			"type":"VEC2"
		},
		{
			"bufferView":35,
			"componentType":5123,
			"count":48,
			"type":"SCALAR"
		},
		{
			"bufferView":36,
			"componentType":5126,
			"count":31,
			"max":[
				0.030791835859417915,
				0.01204933226108551,
				0.051072850823402405
			],
			"min":[
				-0.018178731203079224,
				-0.020057648420333862,
				-0.05825725197792053
			],
			"type":"VEC3"
		},
		{
			"bufferView":37,
			"componentType":5126,
			"count":31,
			"type":"VEC3"
		},
		{
			"bufferView":38,
			"componentType":5126,
			"count":31,
			"type":"VEC2"
		},
		{
			"bufferView":39,
			"componentType":5123,
			"count":48,
			"type":"SCALAR"
		},
		{
			"bufferView":40,
			"componentType":5126,
			"count":30,
			"max":[
				-0.004530586302280426,
				0.018902018666267395,
				0.0035157548263669014
			],
			"min":[
				-0.23651981353759766,
				-0.02812831848859787,
				-0.07131198048591614
			],
			"type":"VEC3"
		},
		{
			"bufferView":41,
			"componentType":5126,
			"count":30,
			"type":"VEC3"
		},
		{
			"bufferView":42,
			"componentType":5126,
			"count":30,
			"type":"VEC2"
		},
		{
			"bufferView":43,
			"componentType":5123,
			"count":54,
			"type":"SCALAR"
		},
		{
			"bufferView":44,
			"componentType":5126,
			"count":31,
			"max":[
				0.17833632230758667,
				0.08210697770118713,
				0.5200688242912292
			],
			"min":[
				0.053384117782115936,
				0.04999999329447746,
				0.2754612863063812
			],
			"type":"VEC3"
		},
		{
			"bufferView":45,
			"componentType":5126,
			"count":31,
			"type":"VEC3"
		},
		{
			"bufferView":46,
			"componentType":5126,
			"count":31,
			"type":"VEC2"
		},
		{
			"bufferView":47,
			"componentType":5123,
			"count":48,
			"type":"SCALAR"
		},
		{
			"bufferView":48,
			"componentType":5126,
			"count":31,
			"max":[
				0.018047429621219635,
				0.013149074278771877,
				0.047331858426332474
			],
			"min":[
				-0.031496770679950714,
				-0.01895790733397007,
				-0.0613204687833786
			],
			"type":"VEC3"
		},
		{
			"bufferView":49,
			"componentType":5126,
			"count":31,
			"type":"VEC3"
		},
		{
			"bufferView":50,
			"componentType":5126,
			"count":31,
			"type":"VEC2"
		},
		{
			"bufferView":51,
			"componentType":5123,
			"count":48,
			"type":"SCALAR"
		},
		{
			"bufferView":52,
			"componentType":5126,
			"count":130,
			"max":[
				0.02018076181411743,
				0.10970494896173477,
				0.02018076181411743
			],
			"min":[
				-0.02018076181411743,
				-0.10000000149011612,
				-0.02018076181411743
			],
			"type":"VEC3"
		},
		{
			"bufferView":53,
			"componentType":5126,
			"count":130,
			"type":"VEC3"
		},
		{
			"bufferView":54,
			"componentType":5126,
			"count":130,
			"type":"VEC2"
		},
		{
			"bufferView":55,
			"componentType":5123,
			"count":228,
			"type":"SCALAR"
		}
	],
	"bufferViews":[
		{
			"buffer":0,
			"byteLength":288,
			"byteOffset":0,
			"target":34962
		},
		{
			"buffer":0,
			"byteLength":288,
			"byteOffset":288,
			"target":34962
		},
		{
			"buffer":0,
			"byteLength":192,
			"byteOffset":576,
			"target":34962
		},
		{
			"buffer":0,
			"byteLength":72,
			"byteOffset":768,
			"target":34963
		},
		{
			"buffer":0,
			"byteLength":288,
			"byteOffset":840,
			"target":34962
		},
		{
			"buffer":0,
			"byteLength":288,
			"byteOffset":1128,
			"target":34962
		},
		{
			"buffer":0,
			"byteLength":192,
			"byteOffset":1416,
			"target":34962
		},
		{
			"buffer":0,
			"byteLength":288,
			"byteOffset":1608,
			"target":34962
		},
		{
			"buffer":0,
			"byteLength":288,
			"byteOffset":1896,
			"target":34962
		},
		{
			"buffer":0,
			"byteLength":192,
			"byteOffset":2184,
			"target":34962
		},
		{
			"buffer":0,
			"byteLength":288,
			"byteOffset":2376,
			"target":34962
		},
		{
			"buffer":0,
			"byteLength":288,
			"byteOffset":2664,
			"target":34962
		},
		{
			"buffer":0,
			"byteLength":192,
			"byteOffset":2952,
			"target":34962
		},
		{
			"buffer":0,
			"byteLength":288,
			"byteOffset":3144,
			"target":34962
		},
		{
			"buffer":0,
			"byteLength":288,
			"byteOffset":3432,
			"target":34962
		},
		{
			"buffer":0,
			"byteLength":192,
			"byteOffset":3720,
			"target":34962
		},
		{
			"buffer":0,
			"byteLength":372,
			"byteOffset":3912,
			"target":34962
		},
		{
			"buffer":0,
			"byteLength":372,
			"byteOffset":4284,
			"target":34962
		},
		{
			"buffer":0,
			"byteLength":248,
			"byteOffset":4656,
			"target":34962
		},
		{
			"buffer":0,
			"byteLength":96,
			"byteOffset":4904,
			"target":34963
		},
		{
			"buffer":0,
			"byteLength":372,
			"byteOffset":5000,
			"target":34962
		},
		{
			"buffer":0,
			"byteLength":372,
			"byteOffset":5372,
			"target":34962
		},
		{
			"buffer":0,
			"byteLength":248,
			"byteOffset":5744,
			"target":34962
		},
		{
			"buffer":0,
			"byteLength":96,
			"byteOffset":5992,
			"target":34963
		},
		{
			"buffer":0,
			"byteLength":1308,
			"byteOffset":6088,
			"target":34962
		},
		{
			"buffer":0,
			"byteLength":1308,
			"byteOffset":7396,
			"target":34962
		},
		{
			"buffer":0,
			"byteLength":872,
			"byteOffset":8704,
			"target":34962
		},
		{
			"buffer":0,
			"byteLength":384,
			"byteOffset":9576,
			"target":34963
		},
		{
			"buffer":0,
			"byteLength":792,
			"byteOffset":9960,
			"target":34962
		},
		{
			"buffer":0,
			"byteLength":792,
			"byteOffset":10752,
			"target":34962
		},
		{
			"buffer":0,
			"byteLength":528,
			"byteOffset":11544,
			"target":34962
		},
		{
			"buffer":0,
			"byteLength":264,
			"byteOffset":12072,
			"target":34963
		},
		{
			"buffer":0,
			"byteLength":372,
			"byteOffset":12336,
			"target":34962
		},
		{
			"buffer":0,
			"byteLength":372,
			"byteOffset":12708,
			"target":34962
		},
		{
			"buffer":0,
			"byteLength":248,
			"byteOffset":13080,
			"target":34962
		},
		{
			"buffer":0,
			"byteLength":96,
			"byteOffset":13328,
			"target":34963
		},
		{
			"buffer":0,
			"byteLength":372,
			"byteOffset":13424,
			"target":34962
		},
		{
			"buffer":0,
			"byteLength":372,
			"byteOffset":13796,
			"target":34962
		},
		{
			"buffer":0,
			"byteLength":248,
			"byteOffset":14168,
			"target":34962
		},
		{
			"buffer":0,
			"byteLength":96,
			"byteOffset":14416,
			"target":34963
		},
		{
			"buffer":0,
			"byteLength":360,
			"byteOffset":14512,
			"target":34962
		},
		{
			"buffer":0,
			"byteLength":360,
			"byteOffset":14872,
			"target":34962
		},
		{
			"buffer":0,
			"byteLength":240,
			"byteOffset":15232,
			"target":34962
		},
		{
			"buffer":0,
			"byteLength":108,
			"byteOffset":15472,
			"target":34963
		},
		{
			"buffer":0,
			"byteLength":372,
			"byteOffset":15580,
			"target":34962
		},
		{
			"buffer":0,
			"byteLength":372,
			"byteOffset":15952,
			"target":34962
		},
		{
			"buffer":0,
			"byteLength":248,
			"byteOffset":16324,
			"target":34962
		},
		{
			"buffer":0,
			"byteLength":96,
			"byteOffset":16572,
			"target":34963
		},
		{
			"buffer":0,
			"byteLength":372,
			"byteOffset":16668,
			"target":34962
		},
		{
			"buffer":0,
			"byteLength":372,
			"byteOffset":17040,
			"target":34962
		},
		{
			"buffer":0,
			"byteLength":248,
			"byteOffset":17412,
			"target":34962
		},
		{
			"buffer":0,
			"byteLength":96,
			"byteOffset":17660,
			"target":34963
		},
		{
			"buffer":0,
			"byteLength":1560,
			"byteOffset":17756,
			"target":34962
		},
		{
			"buffer":0,
			"byteLength":1560,
			"byteOffset":19316,
			"target":34962
		},
		{
			"buffer":0,
			"byteLength":1040,
			"byteOffset":20876,
			"target":34962
		},
		{
			"buffer":0,
			"byteLength":456,
			"byteOffset":21916,
			"target":34963
		}
	],
	"buffers":[
		{
			"byteLength":22372,
			"uri":"data:application/octet-stream;base64,"
		}
	]
}
