{
	"asset":{
		"generator":"Khronos glTF Blender I/O v3.6.27",
		"version":"2.0"
	},
	"scene":0,
	"scenes":[
		{
			"name":"Scene",
			"nodes":[
				5,
				8,
				16,
				17
			]
		}
	],
	"nodes":[
		{
			"mesh":0,
			"name":"back wall",
			"translation":[
				0.11161096394062042,
				-0.06826671957969666,
				-0.5186972618103027
			]
		},
		{
			"mesh":1,
			"name":"floor",
			"translation":[
				0.11161096394062042,
				-0.06826671957969666,
				-0.5186972618103027
			]
		},
		{
			"mesh":2,
			"name":"left wall",
			"translation":[
				0.11161096394062042,
				-0.06826671957969666,
				-0.5186972618103027
			]
		},
		{
			"mesh":3,
			"name":"near wall",
			"translation":[
				0.11161096394062042,
				-0.06826671957969666,
				-0.5186972618103027
			]
		},
		{
			"mesh":4,
			"name":"right wall",
			"translation":[
				0.11161096394062042,
				-0.06826671957969666,
				-0.5186972618103027
			]
		},
		{
			"children":[
				0,
				1,
				2,
				3,
				4
			],
			"name":"outer",
			"translation":[
				-0.11161096394062042,
				0.06826671957969666,
				0.5186972618103027
			]
		},
		{
			"mesh":5,
			"name":"paddle-r",
			"translation":[
				0.1640598028898239,
				0.0024437978863716125,
				-0.004775047302246094
			]
		},
		{
			"mesh":6,
			"name":"paddlle-l"
		},
		{
			"children":[
				6,
				7
			],
			"name":"paddles",
			"translation":[
				-0.11161096394062042,
				0.06826671957969666,
				0.5186972618103027
			]
		},
		{
			"mesh":7,
			"name":"back durve",
			"translation":[
				0.11161096394062042,
				-0.06826671957969666,
				-0.5186972618103027
			]
		},
		{
			"mesh":8,
			"name":"base funnel",
			"translation":[
				0.11161096394062042,
				-0.06826671957969666,
				-0.5186972618103027
			]
		},
		{
			"mesh":9,
			"name":"launch wall",
			"translation":[
				0.11161096394062042,
				-0.06826671957969666,
				-0.5186972618103027
			]
		},
		{
			"mesh":10,
			"name":"lefft passage",
			"translation":[
				0.11161096394062042,
				-0.06826671957969666,
				-0.5186972618103027
			]
		},
		{
			"mesh":11,
			"name":"left shoot",
			"translation":[
				0.11161096394062042,
				-0.06826671957969666,
				-0.5186972618103027
			]
		},
		{
			"mesh":12,
			"name":"right passage",
			"translation":[
				0.11161096394062042,
				-0.06826671957969666,
				-0.5186972618103027
			]
		},
		{
			"mesh":13,
			"name":"right shoot",
			"translation":[
				0.11161096394062042,
				-0.06826671957969666,
				-0.5186972618103027
			]
		},
		{
			"children":[
				9,
				10,
				11,
				12,
				13,
				14,
				15
			],
			"name":"furniture",
			"translation":[
				-0.11161096394062042,
				0.06826671957969666,
				0.5186972618103027
			]
		},
		{
			"name":"launch",
			"translation":[
				0.2587670087814331,
				0.06756211072206497,
				0.6684902906417847
			]
		}
	],
	"materials":[
		{
			"doubleSided":true,
			"name":"Material.001",
			"pbrMetallicRoughness":{
				"baseColorFactor":[
					0.8000000715255737,
					0.5158716440200806,
					0.04368077963590622,
					1
				],
				"metallicFactor":0,
				"roughnessFactor":0.5
			}
		},
		{
			"doubleSided":true,
			"name":"Material",
			"pbrMetallicRoughness":{
				"baseColorFactor":[
					0.8000000715255737,
					0.051990706473588943,
					0.06715623289346695,
					1
				],
				"metallicFactor":0,
				"roughnessFactor":0.5
			}
		},
		{
			"doubleSided":true,
			"name":"Material.002",
			"pbrMetallicRoughness":{
				"baseColorFactor":[
					0.13161399960517883,
					0.047232311218976974,
					0.8000000715255737,
					1
				],
				"metallicFactor":0,
				"roughnessFactor":0.5
			}
		}
	],
	"meshes":[
		{
			"name":"Cube.005",
			"primitives":[
				{
					"attributes":{
						"POSITION":0,
						"NORMAL":1,
						"TEXCOORD_0":2
					},
					"indices":3,
					"material":0
				}
			]
		},
		{
			"name":"Cube.001",
			"primitives":[
				{
					"attributes":{
						"POSITION":4,
						"NORMAL":5,
						"TEXCOORD_0":6
					},
					"indices":3,
					"material":1
				}
			]
		},
		{
			"name":"Cube.002",
			"primitives":[
				{
					"attributes":{
						"POSITION":7,
						"NORMAL":8,
						"TEXCOORD_0":9
					},
					"indices":3,
					"material":0
				}
			]
		},
		{
			"name":"Cube.004",
			"primitives":[
				{
					"attributes":{
						"POSITION":10,
						"NORMAL":11,
						"TEXCOORD_0":12
					},
					"indices":3,
					"material":0
				}
			]
		},
		{
			"name":"Cube.003",
			"primitives":[
				{
					"attributes":{
						"POSITION":13,
						"NORMAL":14,
						"TEXCOORD_0":15
					},
					"indices":3,
					"material":0
				}
			]
		},
		{
			"name":"Cube.014",
			"primitives":[
				{
					"attributes":{
						"POSITION":16,
						"NORMAL":17,
						"TEXCOORD_0":18
					},
					"indices":19,
					"material":2
				}
			]
		},
		{
			"name":"Cube.016",
			"primitives":[
				{
					"attributes":{
						"POSITION":20,
						"NORMAL":21,
						"TEXCOORD_0":22
					},
					"indices":23,
					"material":2
				}
			]
		},
		{
			"name":"Cube.013",
			"primitives":[
				{
					"attributes":{
						"POSITION":24,
						"NORMAL":25,
						"TEXCOORD_0":26
					},
					"indices":27
				}
			]
		},
		{
			"name":"Cube.007",
			"primitives":[
				{
					"attributes":{
						"POSITION":28,
						"NORMAL":29,
						"TEXCOORD_0":30
					},
					"indices":31
				}
			]
		},
		{
			"name":"Cube.010",
			"primitives":[
				{
					"attributes":{
						"POSITION":32,
						"NORMAL":33,
						"TEXCOORD_0":34
					},
					"indices":35
				}
			]
		},
		{
			"name":"Cube.008",
			"primitives":[
				{
					"attributes":{
						"POSITION":36,
						"NORMAL":37,
						"TEXCOORD_0":38
					},
					"indices":39
				}
			]
		},
		{
			"name":"Cube.006",
			"primitives":[
				{
					"attributes":{
						"POSITION":40,
						"NORMAL":41,
						"TEXCOORD_0":42
					},
					"indices":43
				}
			]
		},
		{
			"name":"Cube.009",
			"primitives":[
				{
					"attributes":{
						"POSITION":44,
						"NORMAL":45,
						"TEXCOORD_0":46
					},
					"indices":47
				}
			]
		},
		{
			"name":"Cube.012",
			"primitives":[
				{
					"attributes":{
						"POSITION":48,
						"NORMAL":49,
						"TEXCOORD_0":50
					},
					"indices":51
				}
			]
		}
	],
	"accessors":[
		{
			"bufferView":0,
			"componentType":5126,
			"count":24,
			"max":[
				0.3799999952316284,
				0.15000000596046448,
				-0.7001798152923584
			],
			"min":[
				-0.3799999952316284,
				-0.05000000074505806,
				-0.8001798391342163
			],
			"type":"VEC3"
		},
		{
			"bufferView":1,
			"componentType":5126,
			"count":24,
			"type":"VEC3"
		},
		{
			"bufferView":2,
			"componentType":5126,
			"count":24,
			"type":"VEC2"
		},
		{
			"bufferView":3,
			"componentType":5123,
			"count":36,
			"type":"SCALAR"
		},
		{
			"bufferView":4,
			"componentType":5126,
			"count":24,
			"max":[
				0.2800000011920929,
				0.05000000074505806,
				0.699999988079071
			],
			"min":[
				-0.2800000011920929,
				-0.04999999701976776,
				-0.699999988079071
			],
			"type":"VEC3"
		},
		{
			"bufferView":5,
			"componentType":5126,
			"count":24,
			"type":"VEC3"
		},
		{
			"bufferView":6,
			"componentType":5126,
			"count":24,
			"type":"VEC2"
		},
		{
			"bufferView":7,
			"componentType":5126,
			"count":24,
			"max":[
				-0.27965277433395386,
				0.15000000596046448,
				0.699999988079071
			],
			"min":[
				-0.37965279817581177,
				-0.05000000074505806,
				-0.699999988079071
			],
			"type":"VEC3"
		},
		{
			"bufferView":8,
			"componentType":5126,
			"count":24,
			"type":"VEC3"
		},
		{
			"bufferView":9,
			"componentType":5126,
			"count":24,
			"type":"VEC2"
		},
		{
			"bufferView":10,
			"componentType":5126,
			"count":24,
			"max":[
				0.3799999952316284,
				0.15000000596046448,
				0.8004763126373291
			],
			"min":[
				-0.3799999952316284,
				-0.05000000074505806,
				0.7004762887954712
			],
			"type":"VEC3"
		},
		{
			"bufferView":11,
			"componentType":5126,
			"count":24,
			"type":"VEC3"
		},
		{
			"bufferView":12,
			"componentType":5126,
			"count":24,
			"type":"VEC2"
		},
		{
			"bufferView":13,
			"componentType":5126,
			"count":24,
			"max":[
				0.38026416301727295,
				0.15000000596046448,
				0.699999988079071
			],
			"min":[
				0.28026413917541504,
				-0.05000000074505806,
				-0.699999988079071
			],
			"type":"VEC3"
		},
		{
			"bufferView":14,
			"componentType":5126,
			"count":24,
			"type":"VEC3"
		},
		{
			"bufferView":15,
			"componentType":5126,
			"count":24,
			"type":"VEC2"
		},
		{
			"bufferView":16,
			"componentType":5126,
			"count":31,
			"max":[
				0.014683037996292114,
				1.741945743560791e-05,
				0.02718740701675415
			],
			"min":[
				-0.06310298293828964,
				-0.019982576370239258,
				-0.01072847843170166
			],
			"type":"VEC3"
		},
		{
			"bufferView":17,
			"componentType":5126,
			"count":31,
			"type":"VEC3"
		},
		{
			"bufferView":18,
			"componentType":5126,
			"count":31,
			"type":"VEC2"
		},
		{
			"bufferView":19,
			"componentType":5123,
			"count":48,
			"type":"SCALAR"
		},
		{
			"bufferView":20,
			"componentType":5126,
			"count":31,
			"max":[
				0.06464358419179916,
				-4.26173210144043e-06,
				0.02314293384552002
			],
			"min":[
				-0.014682188630104065,
				-0.020004257559776306,
				-0.011837184429168701
			],
			"type":"VEC3"
		},
		{
			"bufferView":21,
			"componentType":5126,
			"count":31,
			"type":"VEC3"
		},
		{
			"bufferView":22,
			"componentType":5126,
			"count":31,
			"type":"VEC2"
		},
		{
			"bufferView":23,
			"componentType":5123,
			"count":48,
			"type":"SCALAR"
		},
		{
			"bufferView":24,
			"componentType":5126,
			"count":83,
			"max":[
				0.28040337562561035,
				0.082150898873806,
				-0.3894963562488556
			],
			"min":[
				-0.28366783261299133,
				0.049685537815093994,
				-0.641959547996521
			],
			"type":"VEC3"
		},
		{
			"bufferView":25,
			"componentType":5126,
			"count":83,
			"type":"VEC3"
		},
		{
			"bufferView":26,
			"componentType":5126,
			"count":83,
			"type":"VEC2"
		},
		{
			"bufferView":27,
			"componentType":5123,
			"count":156,
			"type":"SCALAR"
		},
		{
			"bufferView":28,
			"componentType":5126,
			"count":44,
			"max":[
				0.23483045399188995,
				0.08210697770118713,
				0.7000167965888977
			],
			"min":[
				-0.2784365117549896,
				0.04999999329447746,
				0.5038968920707703
			],
			"type":"VEC3"
		},
		{
			"bufferView":29,
			"componentType":5126,
			"count":44,
			"type":"VEC3"
		},
		{
			"bufferView":30,
			"componentType":5126,
			"count":44,
			"type":"VEC2"
		},
		{
			"bufferView":31,
			"componentType":5123,
			"count":84,
			"type":"SCALAR"
		},
		{
			"bufferView":32,
			"componentType":5126,
			"count":16,
			"max":[
				0.23546579480171204,
				0.08210697025060654,
				0.5277424454689026
			],
			"min":[
				0.22035691142082214,
				0.04999999329447746,
				0.20587816834449768
			],
			"type":"VEC3"
		},
		{
			"bufferView":33,
			"componentType":5126,
			"count":16,
			"type":"VEC3"
		},
		{
			"bufferView":34,
			"componentType":5126,
			"count":16,
			"type":"VEC2"
		},
		{
			"bufferView":35,
			"componentType":5123,
			"count":24,
			"type":"SCALAR"
		},
		{
			"bufferView":36,
			"componentType":5126,
			"count":31,
			"max":[
				-0.10755856335163116,
				0.08210697770118713,
				0.5271743535995483
			],
			"min":[
				-0.2304709553718567,
				0.04999999701976776,
				0.26832276582717896
			],
			"type":"VEC3"
		},
		{
			"bufferView":37,
			"componentType":5126,
			"count":31,
			"type":"VEC3"
		},
		{
			"bufferView":38,
			"componentType":5126,
			"count":31,
			"type":"VEC2"
		},
		{
			"bufferView":39,
			"componentType":5123,
			"count":48,
			"type":"SCALAR"
		},
		{
			"bufferView":40,
			"componentType":5126,
			"count":31,
			"max":[
				-0.12467806041240692,
				0.08190176635980606,
				0.43917298316955566
			],
			"min":[
				-0.1731860637664795,
				0.04979478567838669,
				0.33261916041374207
			],
			"type":"VEC3"
		},
		{
			"bufferView":41,
			"componentType":5126,
			"count":31,
			"type":"VEC3"
		},
		{
			"bufferView":42,
			"componentType":5126,
			"count":31,
			"type":"VEC2"
		},
		{
			"bufferView":43,
			"componentType":5123,
			"count":48,
			"type":"SCALAR"
		},
		{
			"bufferView":44,
			"componentType":5126,
			"count":31,
			"max":[
				0.17833632230758667,
				0.08210697770118713,
				0.5200688242912292
			],
			"min":[
				0.053384117782115936,
				0.04999999329447746,
				0.33706212043762207
			],
			"type":"VEC3"
		},
		{
			"bufferView":45,
			"componentType":5126,
			"count":31,
			"type":"VEC3"
		},
		{
			"bufferView":46,
			"componentType":5126,
			"count":31,
			"type":"VEC2"
		},
		{
			"bufferView":47,
			"componentType":5123,
			"count":48,
			"type":"SCALAR"
		},
		{
			"bufferView":48,
			"componentType":5126,
			"count":31,
			"max":[
				0.12329663336277008,
				0.08190176635980606,
				0.44158634543418884
			],
			"min":[
				0.07375243306159973,
				0.04979478567838669,
				0.33624589443206787
			],
			"type":"VEC3"
		},
		{
			"bufferView":49,
			"componentType":5126,
			"count":31,
			"type":"VEC3"
		},
		{
			"bufferView":50,
			"componentType":5126,
			"count":31,
			"type":"VEC2"
		},
		{
			"bufferView":51,
			"componentType":5123,
			"count":48,
			"type":"SCALAR"
		}
	],
	"bufferViews":[
		{
			"buffer":0,
			"byteLength":288,
			"byteOffset":0,
			"target":34962
		},
		{
			"buffer":0,
			"byteLength":288,
			"byteOffset":288,
			"target":34962
		},
		{
			"buffer":0,
			"byteLength":192,
			"byteOffset":576,
			"target":34962
		},
		{
			"buffer":0,
			"byteLength":72,
			"byteOffset":768,
			"target":34963
		},
		{
			"buffer":0,
			"byteLength":288,
			"byteOffset":840,
			"target":34962
		},
		{
			"buffer":0,
			"byteLength":288,
			"byteOffset":1128,
			"target":34962
		},
		{
			"buffer":0,
			"byteLength":192,
			"byteOffset":1416,
			"target":34962
		},
		{
			"buffer":0,
			"byteLength":288,
			"byteOffset":1608,
			"target":34962
		},
		{
			"buffer":0,
			"byteLength":288,
			"byteOffset":1896,
			"target":34962
		},
		{
			"buffer":0,
			"byteLength":192,
			"byteOffset":2184,
			"target":34962
		},
		{
			"buffer":0,
			"byteLength":288,
			"byteOffset":2376,
			"target":34962
		},
		{
			"buffer":0,
			"byteLength":288,
			"byteOffset":2664,
			"target":34962
		},
		{
			"buffer":0,
			"byteLength":192,
			"byteOffset":2952,
			"target":34962
		},
		{
			"buffer":0,
			"byteLength":288,
			"byteOffset":3144,
			"target":34962
		},
		{
			"buffer":0,
			"byteLength":288,
			"byteOffset":3432,
			"target":34962
		},
		{
			"buffer":0,
			"byteLength":192,
			"byteOffset":3720,
			"target":34962
		},
		{
			"buffer":0,
			"byteLength":372,
			"byteOffset":3912,
			"target":34962
		},
		{
			"buffer":0,
			"byteLength":372,
			"byteOffset":4284,
			"target":34962
		},
		{
			"buffer":0,
			"byteLength":248,
			"byteOffset":4656,
			"target":34962
		},
		{
			"buffer":0,
			"byteLength":96,
			"byteOffset":4904,
			"target":34963
		},
		{
			"buffer":0,
			"byteLength":372,
			"byteOffset":5000,
			"target":34962
		},
		{
			"buffer":0,
			"byteLength":372,
			"byteOffset":5372,
			"target":34962
		},
		{
			"buffer":0,
			"byteLength":248,
			"byteOffset":5744,
			"target":34962
		},
		{
			"buffer":0,
			"byteLength":96,
			"byteOffset":5992,
			"target":34963
		},
		{
			"buffer":0,
			"byteLength":996,
			"byteOffset":6088,
			"target":34962
		},
		{
			"buffer":0,
			"byteLength":996,
			"byteOffset":7084,
			"target":34962
		},
		{
			"buffer":0,
			"byteLength":664,
			"byteOffset":8080,
			"target":34962
		},
		{
			"buffer":0,
			"byteLength":312,
			"byteOffset":8744,
			"target":34963
		},
		{
			"buffer":0,
			"byteLength":528,
			"byteOffset":9056,
			"target":34962
		},
		{
			"buffer":0,
			"byteLength":528,
			"byteOffset":9584,
			"target":34962
		},
		{
			"buffer":0,
			"byteLength":352,
			"byteOffset":10112,
			"target":34962
		},
		{
			"buffer":0,
			"byteLength":168,
			"byteOffset":10464,
			"target":34963
		},
		{
			"buffer":0,
			"byteLength":192,
			"byteOffset":10632,
			"target":34962
		},
		{
			"buffer":0,
			"byteLength":192,
			"byteOffset":10824,
			"target":34962
		},
		{
			"buffer":0,
			"byteLength":128,
			"byteOffset":11016,
			"target":34962
		},
		{
			"buffer":0,
			"byteLength":48,
			"byteOffset":11144,
			"target":34963
		},
		{
			"buffer":0,
			"byteLength":372,
			"byteOffset":11192,
			"target":34962
		},
		{
			"buffer":0,
			"byteLength":372,
			"byteOffset":11564,
			"target":34962
		},
		{
			"buffer":0,
			"byteLength":248,
			"byteOffset":11936,
			"target":34962
		},
		{
			"buffer":0,
			"byteLength":96,
			"byteOffset":12184,
			"target":34963
		},
		{
			"buffer":0,
			"byteLength":372,
			"byteOffset":12280,
			"target":34962
		},
		{
			"buffer":0,
			"byteLength":372,
			"byteOffset":12652,
			"target":34962
		},
		{
			"buffer":0,
			"byteLength":248,
			"byteOffset":13024,
			"target":34962
		},
		{
			"buffer":0,
			"byteLength":96,
			"byteOffset":13272,
			"target":34963
		},
		{
			"buffer":0,
			"byteLength":372,
			"byteOffset":13368,
			"target":34962
		},
		{
			"buffer":0,
			"byteLength":372,
			"byteOffset":13740,
			"target":34962
		},
		{
			"buffer":0,
			"byteLength":248,
			"byteOffset":14112,
			"target":34962
		},
		{
			"buffer":0,
			"byteLength":96,
			"byteOffset":14360,
			"target":34963
		},
		{
			"buffer":0,
			"byteLength":372,
			"byteOffset":14456,
			"target":34962
		},
		{
			"buffer":0,
			"byteLength":372,
			"byteOffset":14828,
			"target":34962
		},
		{
			"buffer":0,
			"byteLength":248,
			"byteOffset":15200,
			"target":34962
		},
		{
			"buffer":0,
			"byteLength":96,
			"byteOffset":15448,
			"target":34963
		}
	],
	"buffers":[
		{
			"byteLength":15544,
			"uri":"table.bin"
		}
	]
}
