{
	"asset":{
		"generator":"Khronos glTF Blender I/O v3.6.27",
		"version":"2.0"
	},
	"scene":0,
	"scenes":[
		{
			"name":"Scene",
			"nodes":[
				5,
				8,
				17,
				18,
				19
			]
		}
	],
	"nodes":[
		{
			"mesh":0,
			"name":"back wall",
			"translation":[
				0.11161096394062042,
				-0.06826671957969666,
				-0.5186972618103027
			]
		},
		{
			"mesh":1,
			"name":"floor",
			"translation":[
				0.11161096394062042,
				-0.06826671957969666,
				-0.5186972618103027
			]
		},
		{
			"mesh":2,
			"name":"left wall",
			"translation":[
				0.11161096394062042,
				-0.06826671957969666,
				-0.5186972618103027
			]
		},
		{
			"mesh":3,
			"name":"near wall",
			"translation":[
				0.11161096394062042,
				-0.06826671957969666,
				-0.5186972618103027
			]
		},
		{
			"mesh":4,
			"name":"right wall",
			"translation":[
				0.11161096394062042,
				-0.06826671957969666,
				-0.5186972618103027
			]
		},
		{
			"children":[
				0,
				1,
				2,
				3,
				4
			],
			"name":"outer",
			"translation":[
				-0.11161096394062042,
				0.06826671957969666,
				0.5186972618103027
			]
		},
		{
			"mesh":5,
			"name":"paddle-left",
			"translation":[
				-0.010358959436416626,
				0.004476234316825867,
				0.003846585750579834
			]
		},
		{
			"mesh":6,
			"name":"paddle-right",
			"translation":[
				0.1690783053636551,
				0.004476234316825867,
				0.006730556488037109
			]
		},
		{
			"children":[
				6,
				7
			],
			"name":"interactive",
			"translation":[
				-0.11161096394062042,
				0.06826671957969666,
				0.5186972618103027
			]
		},
		{
			"mesh":7,
			"name":"back durve",
			"translation":[
				0.11161096394062042,
				-0.06826671957969666,
				-0.5818782448768616
			]
		},
		{
			"mesh":8,
			"name":"base funnel",
			"translation":[
				0.11161096394062042,
				-0.06826671957969666,
				-0.5186972618103027
			]
		},
		{
			"mesh":9,
			"name":"lefft passage",
			"translation":[
				0.09986615180969238,
				-0.06826671957969666,
				-0.5242162942886353
			]
		},
		{
			"mesh":10,
			"name":"left shoot",
			"rotation":[
				0,
				0.016148943454027176,
				0,
				0.999869704246521
			],
			"translation":[
				-0.06170351803302765,
				0.0015857145190238953,
				-0.11855068802833557
			]
		},
		{
			"mesh":11,
			"name":"redirector",
			"rotation":[
				0,
				0.7151564955711365,
				0,
				0.6989643573760986
			],
			"scale":[
				0.9998509883880615,
				1,
				0.6569581031799316
			],
			"translation":[
				-0.13990165293216705,
				0.009548269212245941,
				-0.7448073029518127
			]
		},
		{
			"mesh":12,
			"name":"right passage",
			"translation":[
				0.11823549121618271,
				-0.06826671957969666,
				-0.5101416110992432
			]
		},
		{
			"mesh":13,
			"name":"right shoot",
			"translation":[
				0.2278994917869568,
				0.0004859715700149536,
				-0.11756938695907593
			]
		},
		{
			"mesh":14,
			"name":"shoot ramp",
			"rotation":[
				0,
				-0.6989644169807434,
				0,
				0.7151564359664917
			],
			"scale":[
				0.9998509883880615,
				1,
				0.6569581031799316
			],
			"translation":[
				0.32541748881340027,
				0.009548269212245941,
				-0.4152107834815979
			]
		},
		{
			"children":[
				9,
				10,
				11,
				12,
				13,
				14,
				15,
				16
			],
			"name":"furniture",
			"translation":[
				-0.11161096394062042,
				0.06826671957969666,
				0.5186972618103027
			]
		},
		{
			"name":"launch",
			"translation":[
				0.25738173723220825,
				0.06756211072206497,
				0.6633691191673279
			]
		},
		{
			"mesh":15,
			"name":"plunger",
			"rotation":[
				0.7071068286895752,
				0,
				0,
				0.7071068286895752
			],
			"translation":[
				0.25685426592826843,
				0.06659138947725296,
				0.7832766771316528
			]
		}
	],
	"materials":[
		{
			"doubleSided":true,
			"name":"Material.001",
			"pbrMetallicRoughness":{
				"baseColorFactor":[
					0.8000000715255737,
					0.5158716440200806,
					0.04368077963590622,
					1
				],
				"metallicFactor":0,
				"roughnessFactor":0.5
			}
		},
		{
			"doubleSided":true,
			"name":"Material",
			"pbrMetallicRoughness":{
				"baseColorFactor":[
					0.8000000715255737,
					0.051990706473588943,
					0.06715623289346695,
					1
				],
				"metallicFactor":0,
				"roughnessFactor":0.5
			}
		},
		{
			"doubleSided":true,
			"name":"Material.002",
			"pbrMetallicRoughness":{
				"baseColorFactor":[
					0.13161399960517883,
					0.047232311218976974,
					0.8000000715255737,
					1
				],
				"metallicFactor":0,
				"roughnessFactor":0.5
			}
		},
		{
			"doubleSided":true,
			"name":"Material.003",
			"pbrMetallicRoughness":{
				"baseColorFactor":[
					0.11983001232147217,
					0.4062502086162567,
					0.10209465026855469,
					1
				],
				"metallicFactor":0,
				"roughnessFactor":0.5
			}
		},
		{
			"doubleSided":true,
			"name":"Material.004",
			"pbrMetallicRoughness":{
				"baseColorFactor":[
					0.8000000715255737,
					0.001510104164481163,
					0.4363190829753876,
					1
				],
				"metallicFactor":0,
				"roughnessFactor":0.5
			}
		}
	],
	"meshes":[
		{
			"name":"Cube.005",
			"primitives":[
				{
					"attributes":{
						"POSITION":0,
						"NORMAL":1,
						"TEXCOORD_0":2
					},
					"indices":3,
					"material":0
				}
			]
		},
		{
			"name":"Cube.001",
			"primitives":[
				{
					"attributes":{
						"POSITION":4,
						"NORMAL":5,
						"TEXCOORD_0":6
					},
					"indices":3,
					"material":1
				}
			]
		},
		{
			"name":"Cube.002",
			"primitives":[
				{
					"attributes":{
						"POSITION":7,
						"NORMAL":8,
						"TEXCOORD_0":9
					},
					"indices":3,
					"material":0
				}
			]
		},
		{
			"name":"Cube.004",
			"primitives":[
				{
					"attributes":{
						"POSITION":10,
						"NORMAL":11,
						"TEXCOORD_0":12
					},
					"indices":3,
					"material":0
				}
			]
		},
		{
			"name":"Cube.003",
			"primitives":[
				{
					"attributes":{
						"POSITION":13,
						"NORMAL":14,
						"TEXCOORD_0":15
					},
					"indices":3,
					"material":0
				}
			]
		},
		{
			"name":"Cube.016",
			"primitives":[
				{
					"attributes":{
						"POSITION":16,
						"NORMAL":17,
						"TEXCOORD_0":18
					},
					"indices":19,
					"material":2
				}
			]
		},
		{
			"name":"Cube.015",
			"primitives":[
				{
					"attributes":{
						"POSITION":20,
						"NORMAL":21,
						"TEXCOORD_0":22
					},
					"indices":23,
					"material":2
				}
			]
		},
		{
			"name":"Cube.013",
			"primitives":[
				{
					"attributes":{
						"POSITION":24,
						"NORMAL":25,
						"TEXCOORD_0":26
					},
					"indices":27,
					"material":3
				}
			]
		},
		{
			"name":"Cube.007",
			"primitives":[
				{
					"attributes":{
						"POSITION":28,
						"NORMAL":29,
						"TEXCOORD_0":30
					},
					"indices":31,
					"material":3
				}
			]
		},
		{
			"name":"Cube.008",
			"primitives":[
				{
					"attributes":{
						"POSITION":32,
						"NORMAL":33,
						"TEXCOORD_0":34
					},
					"indices":35
				}
			]
		},
		{
			"name":"Cube.006",
			"primitives":[
				{
					"attributes":{
						"POSITION":36,
						"NORMAL":37,
						"TEXCOORD_0":38
					},
					"indices":39
				}
			]
		},
		{
			"name":"Cube.011",
			"primitives":[
				{
					"attributes":{
						"POSITION":40,
						"NORMAL":41,
						"TEXCOORD_0":42
					},
					"indices":43,
					"material":3
				}
			]
		},
		{
			"name":"Cube.009",
			"primitives":[
				{
					"attributes":{
						"POSITION":44,
						"NORMAL":45,
						"TEXCOORD_0":46
					},
					"indices":47
				}
			]
		},
		{
			"name":"Cube.012",
			"primitives":[
				{
					"attributes":{
						"POSITION":48,
						"NORMAL":49,
						"TEXCOORD_0":50
					},
					"indices":51
				}
			]
		},
		{
			"name":"Cube.010",
			"primitives":[
				{
					"attributes":{
						"POSITION":52,
						"NORMAL":53,
						"TEXCOORD_0":54
					},
					"indices":55,
					"material":4
				}
			]
		},
		{
			"name":"Cylinder.001",
			"primitives":[
				{
					"attributes":{
						"POSITION":56,
						"NORMAL":57,
						"TEXCOORD_0":58
					},
					"indices":59
				}
			]
		}
	],
	"accessors":[
		{
			"bufferView":0,
			"componentType":5126,
			"count":24,
			"max":[
				0.3201901316642761,
				0.15000000596046448,
				-0.7001798152923584
			],
			"min":[
				-0.3201901316642761,
				-0.05000000447034836,
				-0.8001798391342163
			],
			"type":"VEC3"
		},
		{
			"bufferView":1,
			"componentType":5126,
			"count":24,
			"type":"VEC3"
		},
		{
			"bufferView":2,
			"componentType":5126,
			"count":24,
			"type":"VEC2"
		},
		{
			"bufferView":3,
			"componentType":5123,
			"count":36,
			"type":"SCALAR"
		},
		{
			"bufferView":4,
			"componentType":5126,
			"count":24,
			"max":[
				0.2800000011920929,
				0.05000000074505806,
				0.699999988079071
			],
			"min":[
				-0.2800000011920929,
				-0.04999999701976776,
				-0.699999988079071
			],
			"type":"VEC3"
		},
		{
			"bufferView":5,
			"componentType":5126,
			"count":24,
			"type":"VEC3"
		},
		{
			"bufferView":6,
			"componentType":5126,
			"count":24,
			"type":"VEC2"
		},
		{
			"bufferView":7,
			"componentType":5126,
			"count":24,
			"max":[
				-0.27965277433395386,
				0.15000000596046448,
				0.699999988079071
			],
			"min":[
				-0.3198429346084595,
				-0.05000000447034836,
				-0.699999988079071
			],
			"type":"VEC3"
		},
		{
			"bufferView":8,
			"componentType":5126,
			"count":24,
			"type":"VEC3"
		},
		{
			"bufferView":9,
			"componentType":5126,
			"count":24,
			"type":"VEC2"
		},
		{
			"bufferView":10,
			"componentType":5126,
			"count":24,
			"max":[
				0.3201901316642761,
				0.15000000596046448,
				0.8474042415618896
			],
			"min":[
				-0.3201901316642761,
				-0.05000000447034836,
				0.7004762887954712
			],
			"type":"VEC3"
		},
		{
			"bufferView":11,
			"componentType":5126,
			"count":24,
			"type":"VEC3"
		},
		{
			"bufferView":12,
			"componentType":5126,
			"count":24,
			"type":"VEC2"
		},
		{
			"bufferView":13,
			"componentType":5126,
			"count":24,
			"max":[
				0.32045429944992065,
				0.15000000596046448,
				0.699999988079071
			],
			"min":[
				0.28026413917541504,
				-0.05000000447034836,
				-0.699999988079071
			],
			"type":"VEC3"
		},
		{
			"bufferView":14,
			"componentType":5126,
			"count":24,
			"type":"VEC3"
		},
		{
			"bufferView":15,
			"componentType":5126,
			"count":24,
			"type":"VEC2"
		},
		{
			"bufferView":16,
			"componentType":5126,
			"count":41,
			"max":[
				0.06590386480093002,
				-1.2911856174468994e-05,
				0.028266847133636475
			],
			"min":[
				-0.012054651975631714,
				-0.021241050213575363,
				-0.013757765293121338
			],
			"type":"VEC3"
		},
		{
			"bufferView":17,
			"componentType":5126,
			"count":41,
			"type":"VEC3"
		},
		{
			"bufferView":18,
			"componentType":5126,
			"count":41,
			"type":"VEC2"
		},
		{
			"bufferView":19,
			"componentType":5123,
			"count":66,
			"type":"SCALAR"
		},
		{
			"bufferView":20,
			"componentType":5126,
			"count":41,
			"max":[
				0.011286601424217224,
				-1.2911856174468994e-05,
				0.02671104669570923
			],
			"min":[
				-0.06723649799823761,
				-0.021241050213575363,
				-0.01274341344833374
			],
			"type":"VEC3"
		},
		{
			"bufferView":21,
			"componentType":5126,
			"count":41,
			"type":"VEC3"
		},
		{
			"bufferView":22,
			"componentType":5126,
			"count":41,
			"type":"VEC2"
		},
		{
			"bufferView":23,
			"componentType":5123,
			"count":66,
			"type":"SCALAR"
		},
		{
			"bufferView":24,
			"componentType":5126,
			"count":109,
			"max":[
				0.2842063307762146,
				0.15013077855110168,
				-0.34869807958602905
			],
			"min":[
				-0.28241848945617676,
				0.049685537815093994,
				-0.641959547996521
			],
			"type":"VEC3"
		},
		{
			"bufferView":25,
			"componentType":5126,
			"count":109,
			"type":"VEC3"
		},
		{
			"bufferView":26,
			"componentType":5126,
			"count":109,
			"type":"VEC2"
		},
		{
			"bufferView":27,
			"componentType":5123,
			"count":192,
			"type":"SCALAR"
		},
		{
			"bufferView":28,
			"componentType":5126,
			"count":66,
			"max":[
				0.23483045399188995,
				0.08210697770118713,
				0.7000167965888977
			],
			"min":[
				-0.2784365117549896,
				0.04999999329447746,
				0.02915879525244236
			],
			"type":"VEC3"
		},
		{
			"bufferView":29,
			"componentType":5126,
			"count":66,
			"type":"VEC3"
		},
		{
			"bufferView":30,
			"componentType":5126,
			"count":66,
			"type":"VEC2"
		},
		{
			"bufferView":31,
			"componentType":5123,
			"count":132,
			"type":"SCALAR"
		},
		{
			"bufferView":32,
			"componentType":5126,
			"count":31,
			"max":[
				-0.11235004663467407,
				0.08210697770118713,
				0.5330278873443604
			],
			"min":[
				-0.22914621233940125,
				0.04999999701976776,
				0.2690393924713135
			],
			"type":"VEC3"
		},
		{
			"bufferView":33,
			"componentType":5126,
			"count":31,
			"type":"VEC3"
		},
		{
			"bufferView":34,
			"componentType":5126,
			"count":31,
			"type":"VEC2"
		},
		{
			"bufferView":35,
			"componentType":5123,
			"count":48,
			"type":"SCALAR"
		},
		{
			"bufferView":36,
			"componentType":5126,
			"count":31,
			"max":[
				0.030791835859417915,
				0.01204933226108551,
				0.051072850823402405
			],
			"min":[
				-0.018178731203079224,
				-0.020057648420333862,
				-0.05825725197792053
			],
			"type":"VEC3"
		},
		{
			"bufferView":37,
			"componentType":5126,
			"count":31,
			"type":"VEC3"
		},
		{
			"bufferView":38,
			"componentType":5126,
			"count":31,
			"type":"VEC2"
		},
		{
			"bufferView":39,
			"componentType":5123,
			"count":48,
			"type":"SCALAR"
		},
		{
			"bufferView":40,
			"componentType":5126,
			"count":30,
			"max":[
				-0.004530586302280426,
				0.018902018666267395,
				-0.009581828489899635
			],
			"min":[
				-0.23651981353759766,
				-0.02812831848859787,
				-0.07131198048591614
			],
			"type":"VEC3"
		},
		{
			"bufferView":41,
			"componentType":5126,
			"count":30,
			"type":"VEC3"
		},
		{
			"bufferView":42,
			"componentType":5126,
			"count":30,
			"type":"VEC2"
		},
		{
			"bufferView":43,
			"componentType":5123,
			"count":54,
			"type":"SCALAR"
		},
		{
			"bufferView":44,
			"componentType":5126,
			"count":31,
			"max":[
				0.17833632230758667,
				0.08210697770118713,
				0.5259223580360413
			],
			"min":[
				0.053384117782115936,
				0.04999999329447746,
				0.2754612863063812
			],
			"type":"VEC3"
		},
		{
			"bufferView":45,
			"componentType":5126,
			"count":31,
			"type":"VEC3"
		},
		{
			"bufferView":46,
			"componentType":5126,
			"count":31,
			"type":"VEC2"
		},
		{
			"bufferView":47,
			"componentType":5123,
			"count":48,
			"type":"SCALAR"
		},
		{
			"bufferView":48,
			"componentType":5126,
			"count":31,
			"max":[
				0.018047429621219635,
				0.013149074278771877,
				0.047331858426332474
			],
			"min":[
				-0.031496770679950714,
				-0.01895790733397007,
				-0.0613204687833786
			],
			"type":"VEC3"
		},
		{
			"bufferView":49,
			"componentType":5126,
			"count":31,
			"type":"VEC3"
		},
		{
			"bufferView":50,
			"componentType":5126,
			"count":31,
			"type":"VEC2"
		},
		{
			"bufferView":51,
			"componentType":5123,
			"count":48,
			"type":"SCALAR"
		},
		{
			"bufferView":52,
			"componentType":5126,
			"count":29,
			"max":[
				0.27787160873413086,
				-0.002614995464682579,
				-0.014777627773582935
			],
			"min":[
				-0.28063881397247314,
				-0.028324192389845848,
				-0.11738377064466476
			],
			"type":"VEC3"
		},
		{
			"bufferView":53,
			"componentType":5126,
			"count":29,
			"type":"VEC3"
		},
		{
			"bufferView":54,
			"componentType":5126,
			"count":29,
			"type":"VEC2"
		},
		{
			"bufferView":55,
			"componentType":5123,
			"count":45,
			"type":"SCALAR"
		},
		{
			"bufferView":56,
			"componentType":5126,
			"count":130,
			"max":[
				0.02018076181411743,
				0.10970494896173477,
				0.02018076181411743
			],
			"min":[
				-0.02018076181411743,
				-0.10000000149011612,
				-0.02018076181411743
			],
			"type":"VEC3"
		},
		{
			"bufferView":57,
			"componentType":5126,
			"count":130,
			"type":"VEC3"
		},
		{
			"bufferView":58,
			"componentType":5126,
			"count":130,
			"type":"VEC2"
		},
		{
			"bufferView":59,
			"componentType":5123,
			"count":228,
			"type":"SCALAR"
		}
	],
	"bufferViews":[
		{
			"buffer":0,
			"byteLength":288,
			"byteOffset":0,
			"target":34962
		},
		{
			"buffer":0,
			"byteLength":288,
			"byteOffset":288,
			"target":34962
		},
		{
			"buffer":0,
			"byteLength":192,
			"byteOffset":576,
			"target":34962
		},
		{
			"buffer":0,
			"byteLength":72,
			"byteOffset":768,
			"target":34963
		},
		{
			"buffer":0,
			"byteLength":288,
			"byteOffset":840,
			"target":34962
		},
		{
			"buffer":0,
			"byteLength":288,
			"byteOffset":1128,
			"target":34962
		},
		{
			"buffer":0,
			"byteLength":192,
			"byteOffset":1416,
			"target":34962
		},
		{
			"buffer":0,
			"byteLength":288,
			"byteOffset":1608,
			"target":34962
		},
		{
			"buffer":0,
			"byteLength":288,
			"byteOffset":1896,
			"target":34962
		},
		{
			"buffer":0,
			"byteLength":192,
			"byteOffset":2184,
			"target":34962
		},
		{
			"buffer":0,
			"byteLength":288,
			"byteOffset":2376,
			"target":34962
		},
		{
			"buffer":0,
			"byteLength":288,
			"byteOffset":2664,
			"target":34962
		},
		{
			"buffer":0,
			"byteLength":192,
			"byteOffset":2952,
			"target":34962
		},
		{
			"buffer":0,
			"byteLength":288,
			"byteOffset":3144,
			"target":34962
		},
		{
			"buffer":0,
			"byteLength":288,
			"byteOffset":3432,
			"target":34962
		},
		{
			"buffer":0,
			"byteLength":192,
			"byteOffset":3720,
			"target":34962
		},
		{
			"buffer":0,
			"byteLength":492,
			"byteOffset":3912,
			"target":34962
		},
		{
			"buffer":0,
			"byteLength":492,
			"byteOffset":4404,
			"target":34962
		},
		{
			"buffer":0,
			"byteLength":328,
			"byteOffset":4896,
			"target":34962
		},
		{
			"buffer":0,
			"byteLength":132,
			"byteOffset":5224,
			"target":34963
		},
		{
			"buffer":0,
			"byteLength":492,
			"byteOffset":5356,
			"target":34962
		},
		{
			"buffer":0,
			"byteLength":492,
			"byteOffset":5848,
			"target":34962
		},
		{
			"buffer":0,
			"byteLength":328,
			"byteOffset":6340,
			"target":34962
		},
		{
			"buffer":0,
			"byteLength":132,
			"byteOffset":6668,
			"target":34963
		},
		{
			"buffer":0,
			"byteLength":1308,
			"byteOffset":6800,
			"target":34962
		},
		{
			"buffer":0,
			"byteLength":1308,
			"byteOffset":8108,
			"target":34962
		},
		{
			"buffer":0,
			"byteLength":872,
			"byteOffset":9416,
			"target":34962
		},
		{
			"buffer":0,
			"byteLength":384,
			"byteOffset":10288,
			"target":34963
		},
		{
			"buffer":0,
			"byteLength":792,
			"byteOffset":10672,
			"target":34962
		},
		{
			"buffer":0,
			"byteLength":792,
			"byteOffset":11464,
			"target":34962
		},
		{
			"buffer":0,
			"byteLength":528,
			"byteOffset":12256,
			"target":34962
		},
		{
			"buffer":0,
			"byteLength":264,
			"byteOffset":12784,
			"target":34963
		},
		{
			"buffer":0,
			"byteLength":372,
			"byteOffset":13048,
			"target":34962
		},
		{
			"buffer":0,
			"byteLength":372,
			"byteOffset":13420,
			"target":34962
		},
		{
			"buffer":0,
			"byteLength":248,
			"byteOffset":13792,
			"target":34962
		},
		{
			"buffer":0,
			"byteLength":96,
			"byteOffset":14040,
			"target":34963
		},
		{
			"buffer":0,
			"byteLength":372,
			"byteOffset":14136,
			"target":34962
		},
		{
			"buffer":0,
			"byteLength":372,
			"byteOffset":14508,
			"target":34962
		},
		{
			"buffer":0,
			"byteLength":248,
			"byteOffset":14880,
			"target":34962
		},
		{
			"buffer":0,
			"byteLength":96,
			"byteOffset":15128,
			"target":34963
		},
		{
			"buffer":0,
			"byteLength":360,
			"byteOffset":15224,
			"target":34962
		},
		{
			"buffer":0,
			"byteLength":360,
			"byteOffset":15584,
			"target":34962
		},
		{
			"buffer":0,
			"byteLength":240,
			"byteOffset":15944,
			"target":34962
		},
		{
			"buffer":0,
			"byteLength":108,
			"byteOffset":16184,
			"target":34963
		},
		{
			"buffer":0,
			"byteLength":372,
			"byteOffset":16292,
			"target":34962
		},
		{
			"buffer":0,
			"byteLength":372,
			"byteOffset":16664,
			"target":34962
		},
		{
			"buffer":0,
			"byteLength":248,
			"byteOffset":17036,
			"target":34962
		},
		{
			"buffer":0,
			"byteLength":96,
			"byteOffset":17284,
			"target":34963
		},
		{
			"buffer":0,
			"byteLength":372,
			"byteOffset":17380,
			"target":34962
		},
		{
			"buffer":0,
			"byteLength":372,
			"byteOffset":17752,
			"target":34962
		},
		{
			"buffer":0,
			"byteLength":248,
			"byteOffset":18124,
			"target":34962
		},
		{
			"buffer":0,
			"byteLength":96,
			"byteOffset":18372,
			"target":34963
		},
		{
			"buffer":0,
			"byteLength":348,
			"byteOffset":18468,
			"target":34962
		},
		{
			"buffer":0,
			"byteLength":348,
			"byteOffset":18816,
			"target":34962
		},
		{
			"buffer":0,
			"byteLength":232,
			"byteOffset":19164,
			"target":34962
		},
		{
			"buffer":0,
			"byteLength":90,
			"byteOffset":19396,
			"target":34963
		},
		{
			"buffer":0,
			"byteLength":1560,
			"byteOffset":19488,
			"target":34962
		},
		{
			"buffer":0,
			"byteLength":1560,
			"byteOffset":21048,
			"target":34962
		},
		{
			"buffer":0,
			"byteLength":1040,
			"byteOffset":22608,
			"target":34962
		},
		{
			"buffer":0,
			"byteLength":456,
			"byteOffset":23648,
			"target":34963
		}
	],
	"buffers":[
		{
			"byteLength":24104,
			"uri":"table.bin"
		}
	]
}
